# This file uses centimeters as units for non-parametric coordinates.

mtllib walldouble9.mtl
g default
v -56.369892 -1.753683 91.385811
v -56.369892 -1.753683 90.855057
v -56.369892 15.682977 91.385811
v -56.369892 15.682977 90.855057
v -96.516144 15.682977 91.385811
v -96.516144 15.682977 90.855057
v -96.516144 -1.753683 91.385811
v -96.516144 -1.753683 90.855057
v -70.304047 -1.848061 90.516571
v -70.537109 -1.848061 90.059151
v -70.900124 -1.848061 89.696136
v -71.357544 -1.848061 89.463066
v -71.864601 -1.848061 89.382759
v -72.371658 -1.848061 89.463066
v -72.829079 -1.848061 89.696136
v -73.192093 -1.848061 90.059151
v -73.425163 -1.848061 90.516571
v -73.505470 -1.848061 91.023628
v -73.425163 -1.848061 91.530685
v -73.192093 -1.848061 91.988106
v -72.829079 -1.848061 92.351120
v -72.371658 -1.848061 92.584190
v -71.864601 -1.848061 92.664497
v -71.357544 -1.848061 92.584190
v -70.900124 -1.848061 92.351120
v -70.537109 -1.848061 91.988106
v -70.304047 -1.848061 91.530685
v -70.223732 -1.848061 91.023628
v -70.304047 22.779739 90.516571
v -70.537109 22.779739 90.059151
v -70.900124 22.779739 89.696136
v -71.357544 22.779739 89.463066
v -71.864601 22.779739 89.382759
v -72.371658 22.779739 89.463066
v -72.829079 22.779739 89.696136
v -73.192093 22.779739 90.059151
v -73.425163 22.779739 90.516571
v -73.505470 22.779739 91.023628
v -73.425163 22.779739 91.530685
v -73.192093 22.779739 91.988106
v -72.829079 22.779739 92.351120
v -72.371658 22.779739 92.584190
v -71.864601 22.779739 92.664497
v -71.357544 22.779739 92.584190
v -70.900124 22.779739 92.351120
v -70.537109 22.779739 91.988106
v -70.304047 22.779739 91.530685
v -70.223732 22.779739 91.023628
v -71.864601 -1.848061 91.023628
v -71.864601 22.779739 91.023628
v -54.396511 -1.848061 90.587311
v -54.629581 -1.848061 90.129890
v -54.992596 -1.848061 89.766876
v -55.450016 -1.848061 89.533806
v -55.957077 -1.848061 89.453499
v -56.464134 -1.848061 89.533806
v -56.921555 -1.848061 89.766876
v -57.284569 -1.848061 90.129890
v -57.517635 -1.848061 90.587311
v -57.597946 -1.848061 91.094368
v -57.517635 -1.848061 91.601425
v -57.284569 -1.848061 92.058846
v -56.921555 -1.848061 92.421860
v -56.464130 -1.848061 92.654930
v -55.957077 -1.848061 92.735237
v -55.450020 -1.848061 92.654930
v -54.992596 -1.848061 92.421860
v -54.629581 -1.848061 92.058846
v -54.396515 -1.848061 91.601425
v -54.316208 -1.848061 91.094368
v -54.396511 22.779739 90.587311
v -54.629581 22.779739 90.129890
v -54.992596 22.779739 89.766876
v -55.450016 22.779739 89.533806
v -55.957077 22.779739 89.453499
v -56.464134 22.779739 89.533806
v -56.921555 22.779739 89.766876
v -57.284569 22.779739 90.129890
v -57.517635 22.779739 90.587311
v -57.597946 22.779739 91.094368
v -57.517635 22.779739 91.601425
v -57.284569 22.779739 92.058846
v -56.921555 22.779739 92.421860
v -56.464130 22.779739 92.654930
v -55.957077 22.779739 92.735237
v -55.450020 22.779739 92.654930
v -54.992596 22.779739 92.421860
v -54.629581 22.779739 92.058846
v -54.396515 22.779739 91.601425
v -54.316208 22.779739 91.094368
v -55.957077 -1.848061 91.094368
v -55.957077 22.779739 91.094368
vt 0.375000 0.000000
vt 0.625000 0.000000
vt 0.625000 0.250000
vt 0.375000 0.250000
vt 0.625000 0.500000
vt 0.375000 0.500000
vt 0.625000 0.750000
vt 0.375000 0.750000
vt 0.625000 1.000000
vt 0.375000 1.000000
vt 0.875000 0.000000
vt 0.875000 0.250000
vt 0.125000 0.000000
vt 0.125000 0.250000
vt 0.375000 0.312500
vt 0.387500 0.312500
vt 0.387500 0.687500
vt 0.375000 0.687500
vt 0.400000 0.312500
vt 0.400000 0.687500
vt 0.412500 0.312500
vt 0.412500 0.687500
vt 0.425000 0.312500
vt 0.425000 0.687500
vt 0.437500 0.312500
vt 0.437500 0.687500
vt 0.450000 0.312500
vt 0.450000 0.687500
vt 0.462500 0.312500
vt 0.462500 0.687500
vt 0.475000 0.312500
vt 0.475000 0.687500
vt 0.487500 0.312500
vt 0.487500 0.687500
vt 0.500000 0.312500
vt 0.500000 0.687500
vt 0.512500 0.312500
vt 0.512500 0.687500
vt 0.525000 0.312500
vt 0.525000 0.687500
vt 0.537500 0.312500
vt 0.537500 0.687500
vt 0.550000 0.312500
vt 0.550000 0.687500
vt 0.562500 0.312500
vt 0.562500 0.687500
vt 0.575000 0.312500
vt 0.575000 0.687500
vt 0.587500 0.312500
vt 0.587500 0.687500
vt 0.600000 0.312500
vt 0.600000 0.687500
vt 0.612500 0.312500
vt 0.612500 0.687500
vt 0.625000 0.312500
vt 0.625000 0.687500
vt 0.626409 0.064408
vt 0.648603 0.107966
vt 0.500000 0.156250
vt 0.591842 0.029841
vt 0.548284 0.007647
vt 0.500000 -0.000000
vt 0.451716 0.007647
vt 0.408159 0.029841
vt 0.373591 0.064409
vt 0.351397 0.107966
vt 0.343750 0.156250
vt 0.351397 0.204534
vt 0.373591 0.248091
vt 0.408159 0.282659
vt 0.451716 0.304853
vt 0.500000 0.312500
vt 0.548284 0.304853
vt 0.591841 0.282659
vt 0.626409 0.248091
vt 0.648603 0.204534
vt 0.656250 0.156250
vt 0.648603 0.892034
vt 0.626409 0.935591
vt 0.500000 0.843750
vt 0.591841 0.970159
vt 0.548284 0.992353
vt 0.500000 1.000000
vt 0.451716 0.992353
vt 0.408159 0.970159
vt 0.373591 0.935591
vt 0.351397 0.892034
vt 0.343750 0.843750
vt 0.351397 0.795466
vt 0.373591 0.751909
vt 0.408159 0.717341
vt 0.451716 0.695147
vt 0.500000 0.687500
vt 0.548284 0.695147
vt 0.591842 0.717341
vt 0.626409 0.751908
vt 0.648603 0.795466
vt 0.656250 0.843750
vt 0.375000 0.312500
vt 0.387500 0.312500
vt 0.387500 0.687500
vt 0.375000 0.687500
vt 0.400000 0.312500
vt 0.400000 0.687500
vt 0.412500 0.312500
vt 0.412500 0.687500
vt 0.425000 0.312500
vt 0.425000 0.687500
vt 0.437500 0.312500
vt 0.437500 0.687500
vt 0.450000 0.312500
vt 0.450000 0.687500
vt 0.462500 0.312500
vt 0.462500 0.687500
vt 0.475000 0.312500
vt 0.475000 0.687500
vt 0.487500 0.312500
vt 0.487500 0.687500
vt 0.500000 0.312500
vt 0.500000 0.687500
vt 0.512500 0.312500
vt 0.512500 0.687500
vt 0.525000 0.312500
vt 0.525000 0.687500
vt 0.537500 0.312500
vt 0.537500 0.687500
vt 0.550000 0.312500
vt 0.550000 0.687500
vt 0.562500 0.312500
vt 0.562500 0.687500
vt 0.575000 0.312500
vt 0.575000 0.687500
vt 0.587500 0.312500
vt 0.587500 0.687500
vt 0.600000 0.312500
vt 0.600000 0.687500
vt 0.612500 0.312500
vt 0.612500 0.687500
vt 0.625000 0.312500
vt 0.625000 0.687500
vt 0.626409 0.064408
vt 0.648603 0.107966
vt 0.500000 0.156250
vt 0.591842 0.029841
vt 0.548284 0.007647
vt 0.500000 -0.000000
vt 0.451716 0.007647
vt 0.408159 0.029841
vt 0.373591 0.064409
vt 0.351397 0.107966
vt 0.343750 0.156250
vt 0.351397 0.204534
vt 0.373591 0.248091
vt 0.408159 0.282659
vt 0.451716 0.304853
vt 0.500000 0.312500
vt 0.548284 0.304853
vt 0.591841 0.282659
vt 0.626409 0.248091
vt 0.648603 0.204534
vt 0.656250 0.156250
vt 0.648603 0.892034
vt 0.626409 0.935591
vt 0.500000 0.843750
vt 0.591841 0.970159
vt 0.548284 0.992353
vt 0.500000 1.000000
vt 0.451716 0.992353
vt 0.408159 0.970159
vt 0.373591 0.935591
vt 0.351397 0.892034
vt 0.343750 0.843750
vt 0.351397 0.795466
vt 0.373591 0.751909
vt 0.408159 0.717341
vt 0.451716 0.695147
vt 0.500000 0.687500
vt 0.548284 0.695147
vt 0.591842 0.717341
vt 0.626409 0.751908
vt 0.648603 0.795466
vt 0.656250 0.843750
vn 1.000000 0.000000 0.000000
vn 1.000000 0.000000 0.000000
vn 1.000000 0.000000 0.000000
vn 1.000000 0.000000 0.000000
vn 0.000000 1.000000 0.000000
vn 0.000000 1.000000 0.000000
vn 0.000000 1.000000 0.000000
vn 0.000000 1.000000 0.000000
vn -1.000000 0.000000 0.000000
vn -1.000000 0.000000 0.000000
vn -1.000000 0.000000 0.000000
vn -1.000000 0.000000 0.000000
vn 0.000000 -1.000000 0.000000
vn 0.000000 -1.000000 0.000000
vn 0.000000 -1.000000 0.000000
vn 0.000000 -1.000000 0.000000
vn 0.000000 0.000000 -1.000000
vn 0.000000 0.000000 -1.000000
vn 0.000000 0.000000 -1.000000
vn 0.000000 0.000000 -1.000000
vn 0.000000 0.000000 1.000000
vn 0.000000 0.000000 1.000000
vn 0.000000 0.000000 1.000000
vn 0.000000 0.000000 1.000000
vn 0.951057 0.000000 -0.309017
vn 0.809020 0.000000 -0.587782
vn 0.809020 0.000000 -0.587782
vn 0.951057 0.000000 -0.309017
vn 0.587786 0.000000 -0.809017
vn 0.587786 0.000000 -0.809017
vn 0.309016 0.000000 -0.951057
vn 0.309016 0.000000 -0.951057
vn 0.000000 0.000000 -1.000000
vn 0.000000 0.000000 -1.000000
vn -0.309016 0.000000 -0.951057
vn -0.309016 0.000000 -0.951057
vn -0.587786 0.000000 -0.809017
vn -0.587786 0.000000 -0.809017
vn -0.809016 0.000000 -0.587787
vn -0.809016 0.000000 -0.587787
vn -0.951057 0.000000 -0.309017
vn -0.951057 0.000000 -0.309017
vn -1.000000 0.000000 0.000000
vn -1.000000 0.000000 0.000000
vn -0.951057 0.000000 0.309017
vn -0.951057 0.000000 0.309017
vn -0.809016 0.000000 0.587787
vn -0.809016 0.000000 0.587787
vn -0.587792 0.000000 0.809012
vn -0.587792 0.000000 0.809012
vn -0.309016 0.000000 0.951057
vn -0.309016 0.000000 0.951057
vn 0.000000 0.000000 1.000000
vn 0.000000 0.000000 1.000000
vn 0.309016 0.000000 0.951057
vn 0.309016 0.000000 0.951057
vn 0.587792 0.000000 0.809012
vn 0.587792 0.000000 0.809012
vn 0.809020 0.000000 0.587782
vn 0.809020 0.000000 0.587782
vn 0.951057 0.000000 0.309017
vn 0.951057 0.000000 0.309017
vn 1.000000 0.000000 0.000000
vn 1.000000 0.000000 0.000000
vn 0.000000 -1.000000 0.000000
vn 0.000000 -1.000000 0.000000
vn 0.000000 -1.000000 0.000000
vn 0.000000 -1.000000 0.000000
vn 0.000000 -1.000000 0.000000
vn 0.000000 -1.000000 0.000000
vn 0.000000 -1.000000 0.000000
vn 0.000000 -1.000000 0.000000
vn 0.000000 -1.000000 0.000000
vn 0.000000 -1.000000 0.000000
vn 0.000000 -1.000000 0.000000
vn 0.000000 -1.000000 0.000000
vn 0.000000 -1.000000 0.000000
vn 0.000000 -1.000000 0.000000
vn 0.000000 -1.000000 0.000000
vn 0.000000 -1.000000 0.000000
vn 0.000000 -1.000000 0.000000
vn 0.000000 -1.000000 0.000000
vn 0.000000 -1.000000 0.000000
vn 0.000000 -1.000000 0.000000
vn 0.000000 -1.000000 0.000000
vn 0.000000 1.000000 0.000005
vn 0.000000 1.000000 0.000000
vn 0.000000 1.000000 0.000000
vn 0.000000 1.000000 0.000000
vn 0.000000 1.000000 0.000000
vn 0.000000 1.000000 0.000000
vn 0.000000 1.000000 0.000000
vn 0.000000 1.000000 0.000000
vn 0.000000 1.000000 0.000000
vn 0.000000 1.000000 0.000000
vn 0.000000 1.000000 0.000000
vn 0.000000 1.000000 0.000000
vn 0.000000 1.000000 0.000000
vn 0.000000 1.000000 0.000000
vn 0.000000 1.000000 0.000000
vn 0.000000 1.000000 0.000000
vn 0.000000 1.000000 0.000000
vn 0.000000 1.000000 0.000000
vn 0.000000 1.000000 0.000002
vn 0.000000 1.000000 -0.000002
vn 0.000000 1.000000 0.000000
vn 0.951058 0.000000 -0.309014
vn 0.809013 0.000000 -0.587791
vn 0.809013 0.000000 -0.587791
vn 0.951058 0.000000 -0.309014
vn 0.587786 0.000000 -0.809017
vn 0.587786 0.000000 -0.809017
vn 0.309015 0.000000 -0.951057
vn 0.309015 0.000000 -0.951057
vn 0.000000 0.000000 -1.000000
vn 0.000000 0.000000 -1.000000
vn -0.309016 0.000000 -0.951057
vn -0.309016 0.000000 -0.951057
vn -0.587786 0.000000 -0.809017
vn -0.587786 0.000000 -0.809017
vn -0.809015 0.000000 -0.587789
vn -0.809015 0.000000 -0.587789
vn -0.951057 0.000000 -0.309017
vn -0.951057 0.000000 -0.309017
vn -1.000000 0.000000 0.000000
vn -1.000000 0.000000 0.000000
vn -0.951057 0.000000 0.309017
vn -0.951057 0.000000 0.309017
vn -0.809015 0.000000 0.587789
vn -0.809015 0.000000 0.587789
vn -0.587790 0.000000 0.809013
vn -0.587790 0.000000 0.809013
vn -0.309025 0.000000 0.951054
vn -0.309025 0.000000 0.951054
vn 0.000000 0.000000 1.000000
vn 0.000000 0.000000 1.000000
vn 0.309024 0.000000 0.951054
vn 0.309024 0.000000 0.951054
vn 0.587790 0.000000 0.809013
vn 0.587790 0.000000 0.809013
vn 0.809015 0.000000 0.587789
vn 0.809015 0.000000 0.587789
vn 0.951058 0.000000 0.309014
vn 0.951058 0.000000 0.309014
vn 1.000000 0.000000 0.000004
vn 1.000000 0.000000 0.000004
vn 0.000000 -1.000000 0.000000
vn 0.000000 -1.000000 0.000000
vn 0.000000 -1.000000 0.000000
vn 0.000000 -1.000000 -0.000000
vn 0.000000 -1.000000 0.000000
vn 0.000000 -1.000000 0.000000
vn 0.000000 -1.000000 0.000000
vn 0.000000 -1.000000 0.000000
vn 0.000000 -1.000000 0.000000
vn 0.000000 -1.000000 0.000000
vn 0.000000 -1.000000 0.000000
vn 0.000000 -1.000000 0.000000
vn 0.000000 -1.000000 0.000000
vn 0.000000 -1.000000 0.000000
vn 0.000000 -1.000000 0.000000
vn 0.000000 -1.000000 0.000000
vn 0.000000 -1.000000 0.000000
vn 0.000000 -1.000000 0.000000
vn 0.000000 -1.000000 0.000000
vn 0.000000 -1.000000 0.000000
vn 0.000000 -1.000000 0.000000
vn 0.000000 1.000000 0.000000
vn 0.000000 1.000000 0.000000
vn 0.000000 1.000000 0.000000
vn 0.000000 1.000000 0.000000
vn 0.000000 1.000000 0.000000
vn 0.000000 1.000000 0.000000
vn 0.000000 1.000000 0.000000
vn 0.000000 1.000000 0.000000
vn 0.000000 1.000000 0.000002
vn 0.000000 1.000000 0.000002
vn 0.000000 1.000000 0.000000
vn 0.000000 1.000000 0.000000
vn 0.000000 1.000000 0.000000
vn 0.000000 1.000000 0.000000
vn 0.000000 1.000000 0.000000
vn 0.000000 1.000000 0.000000
vn 0.000000 1.000000 0.000001
vn 0.000000 1.000000 0.000001
vn 0.000000 1.000000 -0.000002
vn 0.000000 1.000000 -0.000002
vn 0.000000 1.000000 0.000000
s off
g walldouble9
usemtl initialShadingGroup
f 1/1/1 2/2/2 4/3/3 3/4/4
f 3/4/5 4/3/6 6/5/7 5/6/8
f 5/6/9 6/5/10 8/7/11 7/8/12
f 7/8/13 8/7/14 2/9/15 1/10/16
f 2/2/17 8/11/18 6/12/19 4/3/20
f 7/13/21 1/1/22 3/4/23 5/14/24
s 1
f 9/15/25 10/16/26 30/17/27 29/18/28
f 10/16/26 11/19/29 31/20/30 30/17/27
f 11/19/29 12/21/31 32/22/32 31/20/30
f 12/21/31 13/23/33 33/24/34 32/22/32
f 13/23/33 14/25/35 34/26/36 33/24/34
f 14/25/35 15/27/37 35/28/38 34/26/36
f 15/27/37 16/29/39 36/30/40 35/28/38
f 16/29/39 17/31/41 37/32/42 36/30/40
f 17/31/41 18/33/43 38/34/44 37/32/42
f 18/33/43 19/35/45 39/36/46 38/34/44
f 19/35/45 20/37/47 40/38/48 39/36/46
f 20/37/47 21/39/49 41/40/50 40/38/48
f 21/39/49 22/41/51 42/42/52 41/40/50
f 22/41/51 23/43/53 43/44/54 42/42/52
f 23/43/53 24/45/55 44/46/56 43/44/54
f 24/45/55 25/47/57 45/48/58 44/46/56
f 25/47/57 26/49/59 46/50/60 45/48/58
f 26/49/59 27/51/61 47/52/62 46/50/60
f 27/51/61 28/53/63 48/54/64 47/52/62
f 28/53/63 9/55/25 29/56/28 48/54/64
s 2
f 10/57/65 9/58/66 49/59/67
f 11/60/68 10/57/65 49/59/67
f 12/61/69 11/60/68 49/59/67
f 13/62/70 12/61/69 49/59/67
f 14/63/71 13/62/70 49/59/67
f 15/64/72 14/63/71 49/59/67
f 16/65/73 15/64/72 49/59/67
f 17/66/74 16/65/73 49/59/67
f 18/67/75 17/66/74 49/59/67
f 19/68/76 18/67/75 49/59/67
f 20/69/77 19/68/76 49/59/67
f 21/70/78 20/69/77 49/59/67
f 22/71/79 21/70/78 49/59/67
f 23/72/80 22/71/79 49/59/67
f 24/73/81 23/72/80 49/59/67
f 25/74/82 24/73/81 49/59/67
f 26/75/83 25/74/82 49/59/67
f 27/76/84 26/75/83 49/59/67
f 28/77/85 27/76/84 49/59/67
f 9/58/66 28/77/85 49/59/67
s 3
f 29/78/86 30/79/87 50/80/88
f 30/79/87 31/81/89 50/80/88
f 31/81/89 32/82/90 50/80/88
f 32/82/90 33/83/91 50/80/88
f 33/83/91 34/84/92 50/80/88
f 34/84/92 35/85/93 50/80/88
f 35/85/93 36/86/94 50/80/88
f 36/86/94 37/87/95 50/80/88
f 37/87/95 38/88/96 50/80/88
f 38/88/96 39/89/97 50/80/88
f 39/89/97 40/90/98 50/80/88
f 40/90/98 41/91/99 50/80/88
f 41/91/99 42/92/100 50/80/88
f 42/92/100 43/93/101 50/80/88
f 43/93/101 44/94/102 50/80/88
f 44/94/102 45/95/103 50/80/88
f 45/95/103 46/96/104 50/80/88
f 46/96/104 47/97/105 50/80/88
f 47/97/105 48/98/106 50/80/88
f 48/98/106 29/78/86 50/80/88
s 4
f 51/99/107 52/100/108 72/101/109 71/102/110
f 52/100/108 53/103/111 73/104/112 72/101/109
f 53/103/111 54/105/113 74/106/114 73/104/112
f 54/105/113 55/107/115 75/108/116 74/106/114
f 55/107/115 56/109/117 76/110/118 75/108/116
f 56/109/117 57/111/119 77/112/120 76/110/118
f 57/111/119 58/113/121 78/114/122 77/112/120
f 58/113/121 59/115/123 79/116/124 78/114/122
f 59/115/123 60/117/125 80/118/126 79/116/124
f 60/117/125 61/119/127 81/120/128 80/118/126
f 61/119/127 62/121/129 82/122/130 81/120/128
f 62/121/129 63/123/131 83/124/132 82/122/130
f 63/123/131 64/125/133 84/126/134 83/124/132
f 64/125/133 65/127/135 85/128/136 84/126/134
f 65/127/135 66/129/137 86/130/138 85/128/136
f 66/129/137 67/131/139 87/132/140 86/130/138
f 67/131/139 68/133/141 88/134/142 87/132/140
f 68/133/141 69/135/143 89/136/144 88/134/142
f 69/135/143 70/137/145 90/138/146 89/136/144
f 70/137/145 51/139/107 71/140/110 90/138/146
s 5
f 52/141/147 51/142/148 91/143/149
f 53/144/150 52/141/147 91/143/149
f 54/145/151 53/144/150 91/143/149
f 55/146/152 54/145/151 91/143/149
f 56/147/153 55/146/152 91/143/149
f 57/148/154 56/147/153 91/143/149
f 58/149/155 57/148/154 91/143/149
f 59/150/156 58/149/155 91/143/149
f 60/151/157 59/150/156 91/143/149
f 61/152/158 60/151/157 91/143/149
f 62/153/159 61/152/158 91/143/149
f 63/154/160 62/153/159 91/143/149
f 64/155/161 63/154/160 91/143/149
f 65/156/162 64/155/161 91/143/149
f 66/157/163 65/156/162 91/143/149
f 67/158/164 66/157/163 91/143/149
f 68/159/165 67/158/164 91/143/149
f 69/160/166 68/159/165 91/143/149
f 70/161/167 69/160/166 91/143/149
f 51/142/148 70/161/167 91/143/149
s 6
f 71/162/168 72/163/169 92/164/170
f 72/163/169 73/165/171 92/164/170
f 73/165/171 74/166/172 92/164/170
f 74/166/172 75/167/173 92/164/170
f 75/167/173 76/168/174 92/164/170
f 76/168/174 77/169/175 92/164/170
f 77/169/175 78/170/176 92/164/170
f 78/170/176 79/171/177 92/164/170
f 79/171/177 80/172/178 92/164/170
f 80/172/178 81/173/179 92/164/170
f 81/173/179 82/174/180 92/164/170
f 82/174/180 83/175/181 92/164/170
f 83/175/181 84/176/182 92/164/170
f 84/176/182 85/177/183 92/164/170
f 85/177/183 86/178/184 92/164/170
f 86/178/184 87/179/185 92/164/170
f 87/179/185 88/180/186 92/164/170
f 88/180/186 89/181/187 92/164/170
f 89/181/187 90/182/188 92/164/170
f 90/182/188 71/162/168 92/164/170
